# xmcd
#
# Track frame offsets:
#	187
#	13275
#	26335
#	39342
#	50790
#	65165
#	78662
#	91420
#	105075
#	118095
#	130987
#	144045
#	157237
#	169767
#	181897
#	195570
#	209880
#	224230
#	237402
#	250367
#
# Disc length: 3494 seconds
#
# Revision: 1
# Processed by: cddbd v1.5.1PL2 Copyright (c) Steve Scherf et al.
# Submitted via: audiograbber 1.83.01
#
DISCID=2e0da414
DTITLE=Jelly Roll Morton - Piano Blues
DYEAR=1993
DGENRE=Blues
TTITLE0=Jelly Roll Morton - Frog-I-More-Rag
TTITLE1=Hokum Boys - Selling That Stuff (Take 1)
TTITLE2=Skip James - Little Cow And Calf Is Gonna Die Blues
TTITLE3=Jelly Roll Morton - Thirty-Fifth Street Blues
TTITLE4=Madlyn Davis - Too Black Bad
TTITLE5=Jelly Roll Morton and His Orchestra - Muddy Water Blues
TTITLE6=Hokum Boys - Beedle Um Bum
TTITLE7=Will Ezel - Barrel House Woman
TTITLE8=Madlyn Davis - Death Bell Blues
TTITLE9=Jelly Roll Morton - Mamanita
TTITLE10=Skip James - How Long "Buck"
TTITLE11=Jelly Roll Morton and His Orchestra - Big Fat Ham
TTITLE12=Will Ezel - West Coast Rag
TTITLE13=Madlyn Davis - Gold Tooth Papa Blues
TTITLE14=Jelly Roll Morton - London Blues
TTITLE15=Red Hot Shakin' Davis - It's Red Hot
TTITLE16=Will Ezel - Barrell House Blues
TTITLE17=Jelly Roll Morton's Steamboat Four - Mr.Jelly Lord
TTITLE18=Hokum Boys - Selling That Stuff (Take 3)
TTITLE19=Jelly Roll Morton's Stomps Kings - Steady Roll
EXTD=
EXTT0=
EXTT1=
EXTT2=
EXTT3=
EXTT4=
EXTT5=
EXTT6=
EXTT7=
EXTT8=
EXTT9=
EXTT10=
EXTT11=
EXTT12=
EXTT13=
EXTT14=
EXTT15=
EXTT16=
EXTT17=
EXTT18=
EXTT19=
PLAYORDER=
